<svg xmlns="http://www.w3.org/2000/svg" viewBox="0 0 512 512"><defs><linearGradient id="bg" x1="0" y1="0" x2="1" y2="1"><stop stop-color="#071022"/><stop offset="1" stop-color="#ff7a2a"/></linearGradient><filter id="glow"><feGaussianBlur stdDeviation="8" result="b"/><feMerge><feMergeNode in="b"/><feMergeNode in="SourceGraphic"/></feMerge></filter></defs><rect width="512" height="512" rx="116" fill="url(#bg)"/><circle cx="244" cy="258" r="138" fill="#ff8a2a" stroke="#ffd23b" stroke-width="10"/><path d="M106 258h276M244 120c-52 56-77 102-77 138s25 82 77 138M244 120c52 56 77 102 77 138s-25 82-77 138M145 170c42 30 84 45 126 45s72-11 92-32M145 346c42-30 84-45 126-45s72 11 92 32" fill="none" stroke="#461700" stroke-width="14" stroke-linecap="round" opacity=".9"/><g filter="url(#glow)"><path d="M356 104h54v54" fill="none" stroke="#4ad9ff" stroke-width="18" stroke-linecap="round"/><path d="M400 116l-73 73" stroke="#4ad9ff" stroke-width="18" stroke-linecap="round"/></g><text x="256" y="455" text-anchor="middle" font-family="Arial, sans-serif" font-size="54" font-weight="900" fill="#fff">VS AI</text></svg>