<svg xmlns="http://www.w3.org/2000/svg" viewBox="0 0 1280 720"><defs><linearGradient id="g" x1="0" y1="0" x2="1" y2="1"><stop stop-color="#071022"/><stop offset="1" stop-color="#0b1630"/></linearGradient><linearGradient id="o" x1="0" y1="0" x2="1" y2="1"><stop stop-color="#ffd23b"/><stop offset="1" stop-color="#ff7a2a"/></linearGradient></defs><rect width="1280" height="720" rx="44" fill="url(#g)"/><circle cx="1060" cy="80" r="210" fill="#ff7a2a" opacity=".16"/><circle cx="170" cy="120" r="240" fill="#4ad9ff" opacity=".12"/><text x="70" y="95" fill="#fff" font-family="Arial" font-size="58" font-weight="900">Basket vs AI Pro</text><text x="70" y="145" fill="#aeb8cf" font-family="Arial" font-size="28">Touch control · Perfect shots · Progressive AI</text><rect x="70" y="210" width="1140" height="390" rx="34" fill="#101827" stroke="#4ad9ff" stroke-opacity=".35"/><path d="M70 500h1140" stroke="#fff" stroke-opacity=".22" stroke-width="4"/><path d="M640 210v390" stroke="#fff" stroke-opacity=".14" stroke-width="3"/><circle cx="640" cy="500" r="120" fill="none" stroke="#fff" stroke-opacity=".18" stroke-width="4"/><g transform="translate(250 430)"><circle r="34" cy="-90" fill="#ff7a2a"/><path d="M0-55v80M0-20l70-34M0 25l-38 70M0 25l42 72" stroke="#ff7a2a" stroke-width="18" stroke-linecap="round"/></g><g transform="translate(975 430)"><circle r="34" cy="-90" fill="#4ad9ff"/><path d="M0-55v80M0-20l-70-34M0 25l-38 70M0 25l42 72" stroke="#4ad9ff" stroke-width="18" stroke-linecap="round"/></g><g transform="translate(820 265)"><rect x="76" y="-94" width="82" height="64" rx="6" fill="#fff"/><path d="M116-25v88" stroke="#fff" stroke-width="13"/><ellipse cx="72" cy="-25" rx="54" ry="17" fill="none" stroke="#ff7a2a" stroke-width="10"/></g><circle cx="500" cy="252" r="26" fill="url(#o)" stroke="#461700" stroke-width="7"/><path d="M330 344Q440 190 610 250Q730 295 850 245" fill="none" stroke="#ffd23b" stroke-width="8" stroke-dasharray="20 18" opacity=".9"/><rect x="70" y="625" width="220" height="54" rx="18" fill="#ff7a2a"/><text x="180" y="661" text-anchor="middle" font-family="Arial" font-size="28" font-weight="900" fill="#160a02">ARUNCĂ</text><rect x="965" y="625" width="245" height="54" rx="18" fill="#111a2c" stroke="#ffd23b"/><text x="1088" y="661" text-anchor="middle" font-family="Arial" font-size="25" font-weight="900" fill="#ffd23b">Daily 7/10</text></svg>