<svg xmlns="http://www.w3.org/2000/svg" viewBox="0 0 1280 720"><defs><linearGradient id="g" x1="0" y1="0" x2="1" y2="1"><stop stop-color="#050810"/><stop offset="1" stop-color="#18213a"/></linearGradient></defs><rect width="1280" height="720" rx="44" fill="url(#g)"/><circle cx="1050" cy="90" r="230" fill="#ff7a2a" opacity=".14"/><text x="70" y="92" fill="#fff" font-family="Arial" font-size="58" font-weight="900">Daily Challenges</text><text x="70" y="142" fill="#aeb8cf" font-family="Arial" font-size="28">Achievements · Stats · Rewards</text><g font-family="Arial"><rect x="70" y="210" width="260" height="150" rx="26" fill="#111a2c" stroke="#ffffff" stroke-opacity=".12"/><text x="100" y="270" fill="#fff" font-size="30" font-weight="900">🏀 10 coșuri</text><text x="100" y="316" fill="#aeb8cf" font-size="25">7 / 10 · +120</text><rect x="100" y="335" width="190" height="12" rx="8" fill="#050810"/><rect x="100" y="335" width="133" height="12" rx="8" fill="#ff7a2a"/><rect x="370" y="210" width="260" height="150" rx="26" fill="#111a2c" stroke="#ffffff" stroke-opacity=".12"/><text x="400" y="270" fill="#fff" font-size="30" font-weight="900">🔥 Combo x5</text><text x="400" y="316" fill="#aeb8cf" font-size="25">Unlocked</text><rect x="670" y="210" width="260" height="150" rx="26" fill="#111a2c" stroke="#ffd23b" stroke-opacity=".42"/><text x="700" y="270" fill="#fff" font-size="30" font-weight="900">👑 AI Crusher</text><text x="700" y="316" fill="#ffd23b" font-size="25">Achievement</text><rect x="970" y="210" width="240" height="150" rx="26" fill="#111a2c" stroke="#ffffff" stroke-opacity=".12"/><text x="1000" y="270" fill="#fff" font-size="30" font-weight="900">Nivel</text><text x="1000" y="320" fill="#4ad9ff" font-size="54" font-weight="900">8</text><rect x="70" y="400" width="1140" height="210" rx="30" fill="#0d1220" stroke="#4ad9ff" stroke-opacity=".22"/><text x="110" y="465" fill="#fff" font-size="36" font-weight="900">Progressive AI</text><text x="110" y="520" fill="#aeb8cf" font-size="28">Rookie Bot → Sniper AI → Pro Bot → Legend AI</text><text x="110" y="570" fill="#ffd23b" font-size="28" font-weight="900">Next reward: +95 coins · +55 XP</text><circle cx="1060" cy="510" r="70" fill="#ff8a2a" stroke="#ffd23b" stroke-width="8"/><text x="1060" y="528" text-anchor="middle" fill="#160a02" font-size="42" font-weight="900">AI</text></g></svg>